<svg xmlns="http://www.w3.org/2000/svg" version="1.0" preserveAspectRatio="xMidYMid meet" viewBox="156.46 132 286.54 195">
<metadata>
Created by potrace 1.16, written by Peter Selinger 2001-2019
</metadata>
<g transform="translate(0.000000,477.000000) scale(0.100000,-0.100000)" fill="#000000" stroke="none">
<path d="M2503 3428 c-12 -13 -163 -309 -336 -658 -173 -349 -381 -767 -461 -929 -109 -217 -146 -301 -141 -318 l5 -23 330 0 c302 0 331 1 345 18 8 9 34 45 59 79 141 194 406 281 632 207 44 -14 99 -37 124 -51 368 -208 497 -248 800 -248 194 0 257 9 420 62 115 37 150 56 150 79 0 8 -47 109 -105 224 l-105 209 -33 -11 c-173 -54 -333 -71 -463 -49 -123 22 -250 72 -344 137 -101 70 -265 137 -405 165 -33 6 -120 12 -192 13 -73 1 -133 4 -133 7 0 3 13 32 29 65 16 32 80 165 143 294 63 129 122 241 131 249 9 7 36 16 60 18 67 8 82 -11 205 -262 85 -172 122 -236 159 -276 131 -141 304 -219 488 -219 97 0 255 38 255 61 0 19 -572 1155 -588 1167 -12 9 -130 12 -512 12 l-497 0 -20 -22z"/>
</g>
</svg>